<svg xmlns="http://www.w3.org/2000/svg" x="0px" y="0px" viewBox="0 0 864 864" enable-background="new 0 0 864 864"><style>.ls0{fill:#000}</style><g class="ls0"><g><path d="M453.2,445.5c0,127.1-32.3,192.3-105.3,192.3H237.5c-7.2,0-11.7-4.5-11.7-11.7V625c0-7.2,4.5-11.7,11.7-11.7h21.2V272.2 h-21.2c-7.2,0-11.7-4.5-11.7-11.7v-1.1c0-7.2,4.5-11.7,11.7-11.7h110.4C424.2,247.6,453.2,312.3,453.2,445.5z M401.4,445.5 c0-141.6-8.4-173.3-70.8-173.3H315v341.1h15.6C393.6,613.3,401.4,579.8,401.4,445.5z"/></g><g><path d="M696.3,259.8v158.7h11.1c5.1,0,8.1,2.4,8.1,5.7v0.3c0,3.4-3,5.4-8.1,5.4h-61.3c-5.1,0-8.1-2-8.1-5.4v-0.3 c0-3.4,3-5.7,8.1-5.7h11.1V293.5l-44.1,131.7c-1.5,3.4-4.6,4.7-9.1,4.7h-1.5c0,0-0.5,0-1,0h-0.5c-4.6,0-8.1-1.4-9.1-4.7l-44.6-132 v125.2h11.1c5.1,0,8.1,2.4,8.1,5.7v0.3c0,3.4-3,5.4-8.1,5.4h-61.3c-5.1,0-8.1-2-8.1-5.4v-0.3c0-3.4,3-5.7,8.1-5.7h11.1V259.8h-11.1 c-5.1,0-8.1-2.4-8.1-5.7v-0.3c0-3.4,3-5.4,8.1-5.4h43.5c5.1,0,8.1,1.4,9.1,4.7l52.7,157.6L655.3,253c1-3.4,4.1-4.7,8.6-4.7h43.5 c5.1,0,8.1,2,8.1,5.4v0.3c0,3.4-3,5.7-8.1,5.7H696.3z"/></g><g><path d="M696.3,466.8v158.7h11.1c5.1,0,8.1,2.4,8.1,5.7v0.3c0,3.4-3,5.4-8.1,5.4h-61.3c-5.1,0-8.1-2-8.1-5.4v-0.3 c0-3.4,3-5.7,8.1-5.7h11.1V500.6l-44.1,131.7c-1.5,3.4-4.6,4.7-9.1,4.7h-1.5c0,0-0.5,0-1,0h-0.5c-4.6,0-8.1-1.3-9.1-4.7l-44.6-132 v125.2h11.1c5.1,0,8.1,2.4,8.1,5.7v0.3c0,3.4-3,5.4-8.1,5.4h-61.3c-5.1,0-8.1-2-8.1-5.4v-0.3c0-3.4,3-5.7,8.1-5.7h11.1V466.8h-11.1 c-5.1,0-8.1-2.4-8.1-5.7v-0.3c0-3.4,3-5.4,8.1-5.4h43.5c5.1,0,8.1,1.4,9.1,4.7l52.7,157.6l52.7-157.6c1-3.4,4.1-4.7,8.6-4.7h43.5 c5.1,0,8.1,2,8.1,5.4v0.3c0,3.4-3,5.7-8.1,5.7H696.3z"/></g></g></svg>